HIERARCHY
ROOT Pelvis
{
	OFFSET 0.000000 0.000000 0.000000
	CHANNELS 6 Xposition Yposition Zposition Xrotation Yrotation Zrotation
	JOINT LeftUpLeg_virtual
	{
		OFFSET 0.000000 0.000000 0.000000
		CHANNELS 3 Xrotation Yrotation Zrotation
		JOINT LeftUpLeg
		{
			OFFSET 18.735201 -5.666702 -4.541200
			CHANNELS 3 Xrotation Yrotation Zrotation
			JOINT LeftLeg
			{
				OFFSET -0.021200 -31.938179 0.493100
				CHANNELS 3 Xrotation Yrotation Zrotation
				JOINT LeftFoot
				{
					OFFSET 0.021200 -31.938179 -4.336299
					CHANNELS 3 Xrotation Yrotation Zrotation
					JOINT LeftToeBase
					{
						OFFSET 0.943001 -26.722000 15.023500
						CHANNELS 3 Xrotation Yrotation Zrotation
						End Site
						{
							OFFSET 0 0 0
						}
					}
				}
			}
		}
	}
	JOINT RightUpLeg_virtual
	{
		OFFSET 0.000000 0.000000 0.000000
		CHANNELS 3 Xrotation Yrotation Zrotation
		JOINT RightUpLeg
		{
			OFFSET -18.735201 -5.666702 -4.541200
			CHANNELS 3 Xrotation Yrotation Zrotation
			JOINT RightLeg
			{
				OFFSET 0.018946 -31.938133 0.493100
				CHANNELS 3 Xrotation Yrotation Zrotation
				JOINT RightFoot
				{
					OFFSET -0.018946 -31.938126 -4.336299
					CHANNELS 3 Xrotation Yrotation Zrotation
					JOINT RightToeBase
					{
						OFFSET -0.943001 -26.722004 15.023500
						CHANNELS 3 Xrotation Yrotation Zrotation
						End Site
						{
							OFFSET 0 0 0
						}
					}
				}
			}
		}
	}
	JOINT Hips_virtual
	{
		OFFSET 0.000000 0.000000 0.000000
		CHANNELS 3 Xrotation Yrotation Zrotation
		JOINT Hips
		{
			OFFSET -0.000000 -0.000000 -0.000000
			CHANNELS 3 Xrotation Yrotation Zrotation
			JOINT Spine
			{
				OFFSET 0.000000 10.199997 -0.299500
				CHANNELS 3 Xrotation Yrotation Zrotation
				JOINT Spine1
				{
					OFFSET 0.000000 11.900002 -1.516600
					CHANNELS 3 Xrotation Yrotation Zrotation
					JOINT Spine2
					{
						OFFSET 0.000000 13.600006 -2.842500
						CHANNELS 3 Xrotation Yrotation Zrotation
						JOINT Neck_virtual
						{
							OFFSET 0.000000 0.000000 0.000000
							CHANNELS 3 Xrotation Yrotation Zrotation
							JOINT Neck
							{
								OFFSET 0.000000 9.624100 -2.890100
								CHANNELS 3 Xrotation Yrotation Zrotation
								JOINT Head
								{
									OFFSET 0.000000 14.068802 -1.351900
									CHANNELS 3 Xrotation Yrotation Zrotation
									End Site
									{
										OFFSET 0 0 0
									}
								}
							}
						}
						JOINT LeftShoulder_virtual
						{
							OFFSET 0.000000 0.000000 0.000000
							CHANNELS 3 Xrotation Yrotation Zrotation
							JOINT LeftShoulder
							{
								OFFSET 15.263000 10.923401 -0.547700
								CHANNELS 3 Xrotation Yrotation Zrotation
								JOINT LeftArm
								{
									OFFSET 25.438599 -2.830597 -13.032500
									CHANNELS 3 Xrotation Yrotation Zrotation
									JOINT LeftForeArm
									{
										OFFSET 29.960503 0.000000 0.000000
										CHANNELS 3 Xrotation Yrotation Zrotation
										JOINT LeftHand
										{
											OFFSET 27.849251 0.000000 0.000000
											CHANNELS 3 Xrotation Yrotation Zrotation
											End Site
											{
												OFFSET 0 0 0
											}
										}
									}
								}
							}
						}
						JOINT RightShoulder_virtual
						{
							OFFSET 0.000000 0.000000 0.000000
							CHANNELS 3 Xrotation Yrotation Zrotation
							JOINT RightShoulder
							{
								OFFSET -15.263000 10.923401 -0.547700
								CHANNELS 3 Xrotation Yrotation Zrotation
								JOINT RightArm
								{
									OFFSET -25.438599 -2.830597 -13.032500
									CHANNELS 3 Xrotation Yrotation Zrotation
									JOINT RightForeArm
									{
										OFFSET -29.960503 0.000000 0.000000
										CHANNELS 3 Xrotation Yrotation Zrotation
										JOINT RightHand
										{
											OFFSET -27.849251 0.000000 0.000000
											CHANNELS 3 Xrotation Yrotation Zrotation
											End Site
											{
												OFFSET 0 0 0
											}
										}
									}
								}
							}
						}
					}
				}
			}
		}
	}
}
MOTION
Frames: 4
Frame Time: 0.03333333
-0.174446 86.494141 2.950635 0.000000 0.000000 0.000000 1.737409 -6.629833 -2.357599 -40.521924 9.070414 15.250644 45.289407 0.515331 1.818901 -6.981512 -0.640434 -2.403665 0.000000 0.000000 0.000000 -1.708413 -26.468820 1.519204 -35.225676 -10.955366 -15.586003 41.472864 0.257415 -5.494465 -11.715777 -0.365285 2.822870 0.000000 0.000000 0.000000 0.693213 -3.046656 -0.681842 -2.038432 -10.764242 -2.442018 5.259480 1.711917 -0.251129 1.845751 1.440071 -0.144539 0.000000 0.000000 0.000000 2.857898 1.885100 0.064408 -0.038054 0.369881 1.196387 0.000000 0.000000 0.000000 2.684512 2.184289 0.945062 2.007529 -5.628846 9.773014 -32.542170 -37.804653 -43.128980 7.124739 -76.967667 8.161559 0.000000 0.000000 0.000000 1.750453 -0.058576 -0.672453 1.175483 6.984512 -0.098260 -17.560181 56.216733 21.278134 68.213209 87.495946 -69.819498 0.000000 0.000000 0.000000 
-0.137789 86.492912 2.985887 0.000000 0.000000 0.000000 1.697584 -6.679308 -2.393971 -40.554101 9.063454 15.209598 45.365874 0.521426 1.890384 -6.956517 -0.669970 -2.308380 0.000000 0.000000 0.000000 -1.809523 -26.681019 1.514050 -35.344498 -11.001265 -15.572565 41.461065 0.281625 -5.511960 -11.720097 -0.330446 2.798052 0.000000 0.000000 0.000000 0.721129 -2.934817 -0.679416 -2.148528 -10.854561 -2.355752 5.314576 1.720712 -0.256686 1.894202 1.462468 -0.120970 0.000000 0.000000 0.000000 2.854199 1.915554 0.083405 -0.012798 0.361448 1.200824 0.000000 0.000000 0.000000 2.668626 2.238465 0.950719 2.027387 -5.658968 9.918124 -32.700781 -38.062978 -43.153627 7.226576 -77.080269 8.104287 0.000000 0.000000 0.000000 1.745252 -0.079804 -0.606781 1.214763 6.868192 0.008196 -17.606245 56.536153 20.938635 66.008806 87.449016 -67.629610 0.000000 0.000000 0.000000 
-0.064116 86.491493 3.045310 0.000000 0.000000 0.000000 1.621726 -6.776352 -2.469761 -40.615594 9.051971 15.124747 45.509007 0.543881 2.020658 -6.909730 -0.712663 -2.127902 0.000000 0.000000 0.000000 -1.995800 -27.055155 1.502414 -35.563330 -11.081065 -15.548470 41.457988 0.329409 -5.537366 -11.715441 -0.265674 2.766506 0.000000 0.000000 0.000000 0.782198 -2.741759 -0.662949 -2.363281 -11.020361 -2.173896 5.407817 1.747846 -0.263001 1.984197 1.505234 -0.078271 0.000000 0.000000 0.000000 2.841699 1.977204 0.118971 0.034529 0.345410 1.209064 0.000000 0.000000 0.000000 2.631373 2.338048 0.958789 2.056568 -5.734295 10.183352 -33.016721 -38.518015 -43.198037 7.373706 -77.292422 7.959964 0.000000 0.000000 0.000000 1.737388 -0.115227 -0.487086 1.289107 6.667499 0.187973 -17.739089 57.130445 20.330688 61.409391 87.339056 -63.057440 0.000000 0.000000 0.000000 
0.046905 86.491272 3.107591 0.000000 0.000000 0.000000 1.516836 -6.916532 -2.587616 -40.700568 9.039537 14.993780 45.701004 0.598608 2.187717 -6.847171 -0.742003 -1.880847 0.000000 0.000000 0.000000 -2.242314 -27.510711 1.480935 -35.852172 -11.174950 -15.519554 41.496527 0.399948 -5.556064 -11.680385 -0.178256 2.756323 0.000000 0.000000 0.000000 0.886316 -2.513512 -0.615308 -2.665811 -11.237884 -1.892016 5.515553 1.807242 -0.262530 2.103984 1.564577 -0.023291 0.000000 0.000000 0.000000 2.814915 2.070257 0.167114 0.098516 0.323357 1.220032 0.000000 0.000000 0.000000 2.566295 2.468378 0.965336 2.079093 -5.876168 10.528462 -33.485358 -39.068996 -43.256124 7.470239 -77.580950 7.677781 0.000000 0.000000 0.000000 1.731647 -0.153833 -0.332893 1.391436 6.432840 0.388165 -18.011245 57.922893 19.569235 54.458154 87.130647 -56.144626 0.000000 0.000000 0.000000 
